REM DIRINDEX 1\2,1\3,1\4
REM DIRNAME folder01,folder02,folder03,folder04
TITLE ""
FILE "006 006_Lesson 2_TOEFL_3900.mp3" MP3
  TRACK 01 AUDIO
    TITLE "4:cjc151_0223"
    INDEX 01 00:00:00
  TRACK 02 AUDIO
    TITLE "0:"
    INDEX 01 00:01:40
  TRACK 03 AUDIO
    TITLE "2:cjc151_0224"
    INDEX 01 00:02:20
  TRACK 04 AUDIO
    TITLE "0:"
    INDEX 01 00:03:15
  TRACK 05 AUDIO
    TITLE "3:cjc151_0225"
    INDEX 01 00:04:72
  TRACK 06 AUDIO
    TITLE "0:"
    INDEX 01 00:09:26
  TRACK 07 AUDIO
    TITLE "2:cjc151_0226"
    INDEX 01 00:11:07
  TRACK 08 AUDIO
    TITLE "0:"
    INDEX 01 00:12:14
  TRACK 09 AUDIO
    TITLE "3:cjc151_0227"
    INDEX 01 00:13:69
  TRACK 10 AUDIO
    TITLE "0:"
    INDEX 01 00:17:70
  TRACK 11 AUDIO
    TITLE "2:cjc151_0228"
    INDEX 01 00:19:48
  TRACK 12 AUDIO
    TITLE "0:"
    INDEX 01 00:20:53
  TRACK 13 AUDIO
    TITLE "3:cjc151_0229"
    INDEX 01 00:22:32
  TRACK 14 AUDIO
    TITLE "0:"
    INDEX 01 00:26:34
  TRACK 15 AUDIO
    TITLE "2:cjc151_0230"
    INDEX 01 00:28:15
  TRACK 16 AUDIO
    TITLE "0:"
    INDEX 01 00:29:23
  TRACK 17 AUDIO
    TITLE "3:cjc151_0231"
    INDEX 01 00:30:71
  TRACK 18 AUDIO
    TITLE "0:"
    INDEX 01 00:34:18
  TRACK 19 AUDIO
    TITLE "2:cjc151_0232"
    INDEX 01 00:35:70
  TRACK 20 AUDIO
    TITLE "0:"
    INDEX 01 00:36:72
  TRACK 21 AUDIO
    TITLE "3:cjc151_0233"
    INDEX 01 00:38:51
  TRACK 22 AUDIO
    TITLE "0:"
    INDEX 01 00:43:35
  TRACK 23 AUDIO
    TITLE "2:cjc151_0234"
    INDEX 01 00:45:14
  TRACK 24 AUDIO
    TITLE "0:"
    INDEX 01 00:46:37
  TRACK 25 AUDIO
    TITLE "3:cjc151_0235"
    INDEX 01 00:48:16
  TRACK 26 AUDIO
    TITLE "0:"
    INDEX 01 00:52:49
  TRACK 27 AUDIO
    TITLE "2:cjc151_0236"
    INDEX 01 00:54:29
  TRACK 28 AUDIO
    TITLE "0:"
    INDEX 01 00:55:24
  TRACK 29 AUDIO
    TITLE "3:cjc151_0237"
    INDEX 01 00:57:09
  TRACK 30 AUDIO
    TITLE "0:"
    INDEX 01 01:01:11
  TRACK 31 AUDIO
    TITLE "2:cjc151_0238"
    INDEX 01 01:02:65
  TRACK 32 AUDIO
    TITLE "0:"
    INDEX 01 01:04:09
  TRACK 33 AUDIO
    TITLE "3:cjc151_0239"
    INDEX 01 01:05:64
  TRACK 34 AUDIO
    TITLE "0:"
    INDEX 01 01:10:04
  TRACK 35 AUDIO
    TITLE "2:cjc151_0240"
    INDEX 01 01:11:58
  TRACK 36 AUDIO
    TITLE "0:"
    INDEX 01 01:12:58
  TRACK 37 AUDIO
    TITLE "3:cjc151_0241"
    INDEX 01 01:14:41
  TRACK 38 AUDIO
    TITLE "0:"
    INDEX 01 01:18:45
  TRACK 39 AUDIO
    TITLE "2:cjc151_0242"
    INDEX 01 01:20:24
  TRACK 40 AUDIO
    TITLE "0:"
    INDEX 01 01:21:33
  TRACK 41 AUDIO
    TITLE "3:cjc151_0243"
    INDEX 01 01:23:11
  TRACK 42 AUDIO
    TITLE "0:"
    INDEX 01 01:26:40
  TRACK 43 AUDIO
    TITLE "2:cjc151_0244"
    INDEX 01 01:28:24
  TRACK 44 AUDIO
    TITLE "0:"
    INDEX 01 01:29:23
  TRACK 45 AUDIO
    TITLE "3:cjc151_0245"
    INDEX 01 01:31:00
  TRACK 46 AUDIO
    TITLE "0:"
    INDEX 01 01:33:60
  TRACK 47 AUDIO
    TITLE "2:cjc151_0246"
    INDEX 01 01:35:41
  TRACK 48 AUDIO
    TITLE "0:"
    INDEX 01 01:36:47
  TRACK 49 AUDIO
    TITLE "3:cjc151_0247"
    INDEX 01 01:38:26
  TRACK 50 AUDIO
    TITLE "0:"
    INDEX 01 01:41:12
  TRACK 51 AUDIO
    TITLE "2:cjc151_0248"
    INDEX 01 01:42:67
  TRACK 52 AUDIO
    TITLE "0:"
    INDEX 01 01:44:05
  TRACK 53 AUDIO
    TITLE "3:cjc151_0249"
    INDEX 01 01:45:65
  TRACK 54 AUDIO
    TITLE "0:"
    INDEX 01 01:49:61
  TRACK 55 AUDIO
    TITLE "2:cjc151_0250"
    INDEX 01 01:51:38
  TRACK 56 AUDIO
    TITLE "0:"
    INDEX 01 01:52:51
  TRACK 57 AUDIO
    TITLE "3:cjc151_0251"
    INDEX 01 01:54:31
  TRACK 58 AUDIO
    TITLE "0:"
    INDEX 01 01:59:46
  TRACK 59 AUDIO
    TITLE "2:cjc151_0252"
    INDEX 01 02:01:25
  TRACK 60 AUDIO
    TITLE "0:"
    INDEX 01 02:02:17
  TRACK 61 AUDIO
    TITLE "3:cjc151_0253"
    INDEX 01 02:03:71
  TRACK 62 AUDIO
    TITLE "0:"
    INDEX 01 02:07:53
  TRACK 63 AUDIO
    TITLE "2:cjc151_0254"
    INDEX 01 02:09:30
  TRACK 64 AUDIO
    TITLE "0:"
    INDEX 01 02:10:42
  TRACK 65 AUDIO
    TITLE "3:cjc151_0255"
    INDEX 01 02:12:19
  TRACK 66 AUDIO
    TITLE "0:"
    INDEX 01 02:16:17
  TRACK 67 AUDIO
    TITLE "2:cjc151_0256"
    INDEX 01 02:17:71
  TRACK 68 AUDIO
    TITLE "0:"
    INDEX 01 02:18:70
  TRACK 69 AUDIO
    TITLE "3:cjc151_0257"
    INDEX 01 02:20:50
  TRACK 70 AUDIO
    TITLE "0:"
    INDEX 01 02:23:36
  TRACK 71 AUDIO
    TITLE "2:cjc151_0258"
    INDEX 01 02:25:18
  TRACK 72 AUDIO
    TITLE "0:"
    INDEX 01 02:26:17
  TRACK 73 AUDIO
    TITLE "3:cjc151_0259"
    INDEX 01 02:27:71
  TRACK 74 AUDIO
    TITLE "0:"
    INDEX 01 02:31:22
  TRACK 75 AUDIO
    TITLE "2:cjc151_0260"
    INDEX 01 02:33:01
  TRACK 76 AUDIO
    TITLE "0:"
    INDEX 01 02:34:15
  TRACK 77 AUDIO
    TITLE "3:cjc151_0261"
    INDEX 01 02:35:69
  TRACK 78 AUDIO
    TITLE "0:"
    INDEX 01 02:40:09
  TRACK 79 AUDIO
    TITLE "2:cjc151_0262"
    INDEX 01 02:41:69
  TRACK 80 AUDIO
    TITLE "0:"
    INDEX 01 02:42:61
  TRACK 81 AUDIO
    TITLE "3:cjc151_0263"
    INDEX 01 02:44:40
  TRACK 82 AUDIO
    TITLE "0:"
    INDEX 01 02:48:34
  TRACK 83 AUDIO
    TITLE "2:cjc151_0264"
    INDEX 01 02:50:16
  TRACK 84 AUDIO
    TITLE "0:"
    INDEX 01 02:51:19
  TRACK 85 AUDIO
    TITLE "3:cjc151_0265"
    INDEX 01 02:52:73
  TRACK 86 AUDIO
    TITLE "0:"
    INDEX 01 02:57:02
  TRACK 87 AUDIO
    TITLE "2:cjc151_0266"
    INDEX 01 02:58:56
  TRACK 88 AUDIO
    TITLE "0:"
    INDEX 01 03:01:15
  TRACK 89 AUDIO
    TITLE "3:cjc151_0267"
    INDEX 01 03:02:74
  TRACK 90 AUDIO
    TITLE "0:"
    INDEX 01 03:06:17
